<svg width="56" height="56" viewBox="0 0 56 56" fill="none" xmlns="http://www.w3.org/2000/svg">
    <rect width="56" height="56" rx="14" fill="white"/>
    <path opacity="0.2" d="M40.61 31.145C38.8737 38.1094 31.8196 42.3474 24.8544 40.6111C17.8925 38.8747 13.6541 31.8206 15.3908 24.8567C17.1263 17.8915 24.18 13.6527 31.1432 15.389C38.1079 17.1253 42.3459 24.1803 40.6096 31.145H40.61Z" fill="#F7931A"/>
    <path fill-rule="evenodd" clip-rule="evenodd" d="M31.9153 26.4897C32.0905 25.3162 31.1971 24.6854 29.9754 24.2646L30.3717 22.6749L29.4038 22.4338L29.0179 23.9815C28.7638 23.9181 28.5026 23.8583 28.243 23.7991L28.6316 22.2411L27.6645 22L27.2679 23.5891C27.0574 23.5411 26.8507 23.4937 26.65 23.4438L26.6511 23.4389L25.3167 23.1057L25.0593 24.1392C25.0593 24.1392 25.7772 24.3037 25.7621 24.3139C26.154 24.4117 26.2251 24.6711 26.2129 24.8767L25.7615 26.6876C25.7885 26.6945 25.8235 26.7044 25.8621 26.7198L25.7601 26.6945L25.1271 29.2313C25.0792 29.3504 24.9576 29.529 24.6837 29.4612C24.6933 29.4752 23.9804 29.2856 23.9804 29.2856L23.5 30.3935L24.7595 30.7074C24.9016 30.743 25.0421 30.7797 25.181 30.8159C25.271 30.8394 25.3603 30.8627 25.449 30.8854L25.0486 32.4935L26.0151 32.7347L26.4119 31.1439C26.6757 31.2156 26.932 31.2817 27.1828 31.344L26.7876 32.9273L27.7552 33.1685L28.1556 31.5637C29.8056 31.8759 31.0466 31.75 31.5683 30.2579C31.9891 29.0563 31.5476 28.3632 30.6795 27.9109C31.3117 27.7646 31.7879 27.3487 31.915 26.4897H31.9153ZM29.7042 29.5899C29.4295 30.6927 27.7029 30.2364 26.9136 30.0278C26.8429 30.0091 26.7798 29.9924 26.7258 29.979L27.2572 27.8489C27.3231 27.8654 27.4036 27.8835 27.4948 27.9039L27.4949 27.9039C28.3114 28.0872 29.9848 28.4627 29.7045 29.5899H29.7042ZM27.659 26.9155C28.3176 27.0912 29.7531 27.4742 30.0032 26.4723C30.2589 25.4474 28.8629 25.1385 28.1812 24.9876C28.1046 24.9707 28.0369 24.9557 27.9817 24.942L27.5 26.8739C27.5456 26.8852 27.5991 26.8995 27.659 26.9155Z" fill="#F7931A"/>
</svg>
