<svg width="16" height="16" viewBox="0 0 16 16" fill="none" xmlns="http://www.w3.org/2000/svg">
    <path d="M14.6667 1.83337H1.33333C1.05999 1.83337 0.833328 1.60671 0.833328 1.33337C0.833328 1.06004 1.05999 0.833374 1.33333 0.833374H14.6667C14.94 0.833374 15.1667 1.06004 15.1667 1.33337C15.1667 1.60671 14.94 1.83337 14.6667 1.83337Z" fill="#0CB1A0"/>
    <path d="M11.1133 14.8934C11.0267 15.0667 10.8467 15.1667 10.6667 15.1667C10.5933 15.1667 10.5133 15.1467 10.4467 15.1134L8 13.8934L5.55334 15.1134C5.48667 15.1467 5.40667 15.1667 5.33334 15.1667C5.15334 15.1667 4.97334 15.0667 4.88667 14.8934C4.76 14.64 4.86 14.34 5.11334 14.22L7.5 13.0267V11.3334H8.5V13.0267L10.8867 14.22C11.14 14.34 11.24 14.64 11.1133 14.8934Z" fill="#0CB1A0"/>
    <path d="M2 1.33337V9.40004C2 10.6667 2.66667 11.3334 3.93333 11.3334H12.0667C13.3333 11.3334 14 10.6667 14 9.40004V1.33337H2ZM11.32 5.72004L9.22 7.47337C9.02667 7.63337 8.78 7.70004 8.54667 7.66004C8.30667 7.62004 8.1 7.47337 7.97333 7.26004L7.27333 6.09337L5.32 7.72004C5.22667 7.80004 5.11333 7.83337 5 7.83337C4.86 7.83337 4.71333 7.77337 4.61333 7.65337C4.43333 7.44004 4.46667 7.12671 4.68 6.94671L6.78 5.19337C6.97333 5.03337 7.22 4.96671 7.45333 5.00671C7.69333 5.04671 7.9 5.19337 8.02667 5.40671L8.72667 6.57337L10.68 4.94671C10.8933 4.76671 11.2067 4.80004 11.3867 5.01337C11.56 5.22671 11.5333 5.54004 11.32 5.72004Z" fill="#0CB1A0"/>
</svg>
