<svg width="16" height="16" viewBox="0 0 16 16" fill="none" xmlns="http://www.w3.org/2000/svg">
    <path d="M13.98 10.6667H12.02C11.1733 10.6667 10.6667 11.1734 10.6667 12.0201V13.9801C10.6667 14.8267 11.1733 15.3334 12.02 15.3334H13.98C14.8267 15.3334 15.3333 14.8267 15.3333 13.9801V12.0201C15.3333 11.1734 14.8267 10.6667 13.98 10.6667ZM14.42 12.3001L12.84 14.1467C12.7733 14.2201 12.6867 14.2667 12.5867 14.2667C12.5867 14.2667 12.58 14.2667 12.5733 14.2667C12.4867 14.2667 12.3933 14.2334 12.3333 14.1667L11.6 13.4467C11.4667 13.3134 11.4667 13.0934 11.6 12.9534C11.7333 12.8201 11.9533 12.8201 12.0933 12.9534L12.5533 13.4134L13.8933 11.8534C14.0133 11.7067 14.2333 11.6867 14.38 11.8134C14.5267 11.9401 14.54 12.1601 14.42 12.3001Z" fill="#0CB1A0"/>
    <path d="M13.98 10.6667H12.02C11.1733 10.6667 10.6667 11.1734 10.6667 12.0201V13.9801C10.6667 14.8267 11.1733 15.3334 12.02 15.3334H13.98C14.8267 15.3334 15.3333 14.8267 15.3333 13.9801V12.0201C15.3333 11.1734 14.8267 10.6667 13.98 10.6667ZM14.42 12.3001L12.84 14.1467C12.7733 14.2201 12.6867 14.2667 12.5867 14.2667C12.5867 14.2667 12.58 14.2667 12.5733 14.2667C12.4867 14.2667 12.3933 14.2334 12.3333 14.1667L11.6 13.4467C11.4667 13.3134 11.4667 13.0934 11.6 12.9534C11.7333 12.8201 11.9533 12.8201 12.0933 12.9534L12.5533 13.4134L13.8933 11.8534C14.0133 11.7067 14.2333 11.6867 14.38 11.8134C14.5267 11.9401 14.54 12.1601 14.42 12.3001Z" fill="#0CB1A0"/>
    <path d="M14.6467 4.80659C14.46 2.98659 13.0133 1.53992 11.1933 1.35325C11.06 1.33992 10.9267 1.33325 10.7933 1.33325H5.20666C5.07333 1.33325 4.94 1.33992 4.80666 1.35325C2.98666 1.53992 1.53999 2.98659 1.35333 4.80659C1.33999 4.93992 1.33333 5.07325 1.33333 5.20659V10.7933C1.33333 10.9266 1.33999 11.0599 1.35333 11.1933C1.53999 13.0133 2.98666 14.4599 4.80666 14.6466C4.94 14.6599 5.07333 14.6666 5.20666 14.6666H9.33333C9.7 14.6666 10 14.3666 10 13.9999V12.0199C10 10.9066 10.9067 9.99992 12.02 9.99992H14C14.3667 9.99992 14.6667 9.69992 14.6667 9.33325V5.20659C14.6667 5.07325 14.66 4.93992 14.6467 4.80659ZM5.16666 8.99992C5.16666 9.27325 4.94 9.49992 4.66666 9.49992C4.39333 9.49992 4.16666 9.27325 4.16666 8.99992V6.99992C4.16666 6.72659 4.39333 6.49992 4.66666 6.49992C4.94 6.49992 5.16666 6.72659 5.16666 6.99992V8.99992ZM8.5 8.99992C8.5 9.27325 8.27333 9.49992 8 9.49992C7.72666 9.49992 7.5 9.27325 7.5 8.99992V6.99992C7.5 6.72659 7.72666 6.49992 8 6.49992C8.27333 6.49992 8.5 6.72659 8.5 6.99992V8.99992Z" fill="#0CB1A0"/>
</svg>
