<svg width="49" height="49" viewBox="0 0 49 49" fill="none" xmlns="http://www.w3.org/2000/svg">
    <circle opacity="0.1" cx="24.5" cy="24.5" r="24" stroke="black"/>
    <path d="M29.8092 20.9638C31.1112 20.9638 32.1667 19.9083 32.1667 18.6063C32.1667 17.3043 31.1112 16.2488 29.8092 16.2488C28.5072 16.2488 27.4517 17.3043 27.4517 18.6063C27.4517 19.9083 28.5072 20.9638 29.8092 20.9638Z" fill="#292D32"/>
    <path d="M19.1908 20.9638C20.4929 20.9638 21.5483 19.9083 21.5483 18.6063C21.5483 17.3043 20.4929 16.2488 19.1908 16.2488C17.8888 16.2488 16.8333 17.3043 16.8333 18.6063C16.8333 19.9083 17.8888 20.9638 19.1908 20.9638Z" fill="#292D32"/>
    <path d="M29.8092 32.7513C31.1112 32.7513 32.1667 31.6958 32.1667 30.3938C32.1667 29.0917 31.1112 28.0363 29.8092 28.0363C28.5072 28.0363 27.4517 29.0917 27.4517 30.3938C27.4517 31.6958 28.5072 32.7513 29.8092 32.7513Z" fill="#292D32"/>
    <path d="M19.1908 32.7513C20.4929 32.7513 21.5483 31.6958 21.5483 30.3938C21.5483 29.0917 20.4929 28.0363 19.1908 28.0363C17.8888 28.0363 16.8333 29.0917 16.8333 30.3938C16.8333 31.6958 17.8888 32.7513 19.1908 32.7513Z" fill="#292D32"/>
</svg>
